<svg xmlns="http://www.w3.org/2000/svg" viewBox="0 0 100 100">
  <rect width="100" height="100" rx="22" fill="#0b0d12"/>
  <defs>
    <linearGradient id="g" x1="11" y1="11" x2="89" y2="89" gradientUnits="userSpaceOnUse">
      <stop offset="0%" stop-color="#c8e030"/>
      <stop offset="100%" stop-color="#e87f24"/>
    </linearGradient>
  </defs>
  <path d="M28.1,11.1 A14,14 0 0,1 47.9,11.1 L64.9,28.1 A14,14 0 0,1 64.9,47.9 L47.9,64.9 A14,14 0 0,1 28.1,64.9 L11.1,47.9 A14,14 0 0,1 11.1,28.1 Z" stroke="url(#g)" stroke-width="6.5" stroke-linecap="round" fill="none"/>
  <path d="M52.1,35.1 A14,14 0 0,1 71.9,35.1 L88.9,52.1 A14,14 0 0,1 88.9,71.9 L71.9,88.9 A14,14 0 0,1 52.1,88.9 L35.1,71.9 A14,14 0 0,1 35.1,52.1 Z" stroke="url(#g)" stroke-width="6.5" stroke-linecap="round" fill="none"/>
  <path d="M67.8,32.2 A14,14 0 0,1 64.9,47.9 L47.9,64.9 A14,14 0 0,1 32.2,67.8" stroke="url(#g)" stroke-width="6.5" stroke-linecap="round" fill="none"/>
</svg>